<svg width="24" height="27" viewBox="0 0 24 27" fill="none" xmlns="http://www.w3.org/2000/svg">
<path fill-rule="evenodd" clip-rule="evenodd" d="M1.5 19.375C2.12132 19.375 2.625 19.8787 2.625 20.5V23.5C2.625 23.7071 2.79289 23.875 3 23.875H21C21.2071 23.875 21.375 23.7071 21.375 23.5V20.5C21.375 19.8787 21.8787 19.375 22.5 19.375C23.1213 19.375 23.625 19.8787 23.625 20.5V23.5C23.625 24.9497 22.4497 26.125 21 26.125H3C1.55025 26.125 0.375 24.9497 0.375 23.5V20.5C0.375 19.8787 0.87868 19.375 1.5 19.375Z" fill="#EA7C69"/>
<path d="M10.1069 0.625C9.33533 0.625 8.6917 1.21468 8.62432 1.98332C8.39386 4.61239 8.35321 7.25439 8.50257 9.88876C8.13209 9.90924 7.76175 9.93296 7.39159 9.95994L5.15733 10.1228C4.29589 10.1856 3.81433 11.1461 4.2794 11.874C5.87245 14.3671 7.92515 16.5345 10.3281 18.2606L11.2232 18.9036C11.6874 19.2371 12.3127 19.2371 12.777 18.9036L13.6721 18.2606C16.075 16.5345 18.1277 14.3671 19.7208 11.874C20.1858 11.1461 19.7043 10.1856 18.8428 10.1228L16.6086 9.95994C16.2384 9.93296 15.8681 9.90924 15.4976 9.88877C15.6469 7.25438 15.6063 4.61239 15.3758 1.98332C15.3085 1.21468 14.6648 0.625 13.8932 0.625H10.1069Z" fill="#EA7C69"/>
</svg>
